<?xml version="1.0" encoding="UTF-8" standalone="no"?>
<svg
   xmlns:dc="http://purl.org/dc/elements/1.1/"
   xmlns:cc="http://creativecommons.org/ns#"
   xmlns:rdf="http://www.w3.org/1999/02/22-rdf-syntax-ns#"
   xmlns:svg="http://www.w3.org/2000/svg"
   xmlns="http://www.w3.org/2000/svg"
   viewBox="0 0 276.64001 277.04001"
   height="277.04001"
   width="276.64001"
   xml:space="preserve"
   id="svg2"
   version="1.1"><metadata
     id="metadata8"><rdf:RDF><cc:Work
         rdf:about=""><dc:format>image/svg+xml</dc:format><dc:type
           rdf:resource="http://purl.org/dc/dcmitype/StillImage" /></cc:Work></rdf:RDF></metadata><defs
     id="defs6" /><g
     transform="matrix(1.3333333,0,0,-1.3333333,0,277.04)"
     id="g10"><g
       transform="scale(0.1)"
       id="g12"><path
         id="path14"
         style="fill:#ff3535;fill-opacity:1;fill-rule:evenodd;stroke:none"
         d="m 2072.57,1385.76 c -92.94,0 -185.88,0 -278.82,0 12.1,193.41 -49.31,315.47 -178.27,374.81 -77.45,35.65 -214.28,27.43 -347.38,27.43 -81.14,0 -165.3,0 -251.4,0 -169.751,0 -378.341,19.66 -493.649,-9.14 -106.528,-26.61 -204.414,-115.11 -228.543,-233.12 -14.867,-72.69 -4.57,-169.11 -4.57,-260.54 0,-179.04 0,-335.118 0,-521.079 0,-110.242 -8.083,-216.09 22.851,-287.961 39.363,-91.461 129.316,-177.922 251.399,-191.98 76.542,-8.809 161.785,0 246.828,0 153.347,0 324.084,0 484.504,0 86.01,0 169.56,-7.328 237.69,4.57 190.45,33.27 273.69,184.75 260.54,397.66 92.94,0 185.88,0 278.82,0 0.73,-186.359 11.64,-333.879 -45.7,-447.941 C 1973.58,132.488 1878.33,51.0586 1752.61,19.0703 1633.87,-11.1484 1423.36,5.35938 1290.95,5.35938 c -157.86,0 -319.821,0 -475.364,0 C 650.84,5.35938 477.773,-11.4609 349.355,14.5 212.066,42.2383 121.605,123.148 70.5313,206.469 1.13672,319.699 6.54297,470.832 6.54297,672.699 c 0,184.492 0,354.391 0,530.231 0,197.44 -19.64847,374.43 9.14063,521.08 35.8359,182.53 182.2144,330.97 393.0934,347.38 176.668,13.75 405.161,0 630.783,0 225.94,0 442.77,14.49 630.78,0 152.33,-11.73 274.44,-97.01 338.24,-201.11 73.07,-119.2 68.55,-278.99 63.99,-484.52" /><path
         id="path16"
         style="fill:#000000;fill-opacity:1;fill-rule:evenodd;stroke:none"
         d="m 1021.27,1244.07 c 0,-16.76 0,-50.28 0,-50.28 h 95.99 v -41.14 c 0,0 -60.95,0 -91.42,0 -16.51,-85.9 20.94,-178.369 73.14,-223.978 7.22,-6.301 27.3,-13.192 27.42,-18.281 0.33,-13.469 -31.99,-27.422 -31.99,-27.422 0,0 -77.01,69.25 -95.988,123.401 -23.332,-49.788 -95.988,-123.401 -95.988,-123.401 0,0 -19.524,20.082 -36.571,22.851 63.242,54.078 114.364,120.28 105.133,246.83 -28.949,0 -57.894,0 -86.848,0 0.934,14.3 0,41.14 0,41.14 0,0 56.375,0 82.278,0 2.695,32.35 6.035,64.05 54.844,50.28" /><path
         id="path18"
         style="fill:#000000;fill-opacity:1;fill-rule:evenodd;stroke:none"
         d="m 820.156,1234.93 c 0,0 0,-131.04 0,-196.55 -16.758,0 -33.519,0 -50.277,0 0,22.85 0,74.27 0,74.27 h -73.137 c 0,0 -26.23,-74.27 -201.117,-74.27 -5.41,11.34 -6.617,26.9 -9.141,41.14 58.637,0.78 113.043,2.37 141.696,33.13 -44.188,0 -88.371,0 -132.555,0 0,13.71 0,30.85 0,44.57 51.801,0 155.41,0 155.41,0 v 27.42 h -155.41 v 41.14 h 205.688 c 0,0 0.078,-48.68 0,-68.56 22.859,0 68.566,0 68.566,0 v 77.73 l 50.277,-0.02" /><path
         id="path20"
         style="fill:#000000;fill-opacity:1;fill-rule:evenodd;stroke:none"
         d="m 1213.25,1234.93 c 0,-131.04 0,-393.11 0,-393.11 l -50.28,4.571 -4.57,141.699 h -86.84 c 0,0 0,32.01 0,45.72 28.94,0 86.84,0 86.84,0 v 50.28 l -86.84,4.57 v 41.13 h 86.84 c 0,0 -23.53,130.19 54.85,105.14" /><path
         id="path22"
         style="fill:#000000;fill-opacity:1;fill-rule:evenodd;stroke:none"
         d="m 1537.78,1234.93 v -100.57 h 22.86 v 100.57 h 54.84 V 960.672 h -54.84 v 132.558 h -22.86 V 960.672 h -59.42 v 41.128 h -201.12 v 137.13 h 127.99 v 45.71 h -127.99 v 41.14 h 178.26 v -132.55 h -127.98 v -45.71 l 150.84,-4.57 v 191.98 h 59.42" /><path
         id="path24"
         style="fill:#000000;fill-opacity:1;fill-rule:evenodd;stroke:none"
         d="m 2004.01,1225.78 v -45.71 h -246.83 v -137.12 h 127.99 118.84 v -50.29 h -68.57 -228.53 v 233.12 c 0,0 103.99,0 155.41,0 48.43,0 141.69,0 141.69,0" /><path
         id="path26"
         style="fill:#000000;fill-opacity:1;fill-rule:evenodd;stroke:none"
         d="m 575.805,910.391 v -22.852 h 244.351 c 0,-15.25 0,-45.719 0,-45.719 H 523.051 v 113.93 c 0,0 126.699,-1.352 191.976,0 12.668,0.262 41.86,0 41.86,0 l 0.609,24.129 c 0,0 -31.652,-0.348 -42.469,0 -56.187,1.84 -132.902,-1.379 -191.976,0 0,13.711 0,26.491 0,40.221 99.035,0 198.07,0 297.105,0 0,-36.58 0,-73.139 0,-109.709 H 575.805" /><path
         id="path28"
         style="fill:#000000;fill-opacity:1;fill-rule:evenodd;stroke:none"
         d="m 1364.09,978.949 c 0,-28.949 0,-86.84 0,-86.84 h 255.96 v -45.718 h -306.24 v 132.558 c 0,0 33.52,0 50.28,0" /><path
         id="path30"
         style="fill:#000000;fill-opacity:1;fill-rule:evenodd;stroke:none"
         d="m 2036.01,910.391 c 0,-15.243 0,-30.469 0,-45.7 -121.89,0 -365.67,0 -365.67,0 v 45.7 c 0,0 245.3,0 365.67,0" /></g></g></svg>